<svg version="1.1" viewBox="0 0 256 256" xmlns="http://www.w3.org/2000/svg" xmlns:xlink="http://www.w3.org/1999/xlink">
	<defs>
		<linearGradient id="b">
			<stop stop-color="#404040" offset="0"/>
			<stop stop-color="#c0c0c0" offset="1"/>
		</linearGradient>
		<linearGradient id="a" x1="65.7" x2="190" y1="129" y2="129" gradientUnits="userSpaceOnUse" xlink:href="#b"/>
	</defs>
	<g transform="matrix(1.25 0 0 1.25 -32 -32.3)" stroke="#000" stroke-linejoin="round">
		<rect transform="matrix(.862 0 0 .8 14.3 25.8)" x="80" y="112" width="104" height="32" fill-opacity=".5" fill-rule="evenodd" stroke-linecap="round" stroke-width="3.85"/>
		<path d="m120 40c5.26-0.854 10.7-0.854 16 0 8.32 1.35 16.8 3.57 24 8 9.62 5.95 19.7 13.5 24 24 4.08 9.85 1.71 21.5 0 32-1.35 8.32-8 24-8 24l-16-16h-64l-16 16s-6.65-15.7-8-24c-1.71-10.5-4.08-22.1 0-32 4.33-10.5 14.4-18.1 24-24 7.17-4.43 15.7-6.65 24-8z" fill="url(#a)" stroke-width="6.4"/>
		<path transform="translate(.544 6.16)" d="m87.4 122c1.44-3.48 4.52-6.56 8-8 2.46-1.02 5.54-1.02 8 0 3.48 1.44 6.56 4.52 8 8 1.02 2.46 1.89 6.11 0 8s-5.4-0.613-8 0c-2.9 0.685-5.02 4-8 4-2.98 0-6.43-1.46-8-4-1.4-2.27-1.02-5.54 0-8zm80 1e-13c-1.44-3.48-4.52-6.56-8-8-2.46-1.02-5.54-1.02-8 0-3.48 1.44-6.56 4.52-8 8-1.02 2.46-1.89 6.11 0 8s5.4-0.613 8 0c2.9 0.685 5.02 4 8 4s6.43-1.46 8-4c1.4-2.27 1.02-5.54 0-8zm8-40s-8 12.8-8 20c0 7.18 4.05 14 8 20 2.08 3.15 6.56 4.52 8 8 2.04 4.93 2.04 11.1 0 16-1.44 3.48-4.23 8-8 8l-48 38.6-48.2-38.4c-3.78 0.0494-6.42-4.7-7.83-8.21-1.98-4.95-2.04-11.1 0-16 1.44-3.48 5.92-4.85 8-8 3.95-5.99 8-12.8 8-20 0-7.18-8-20-8-20" fill="url(#a)" fill-rule="evenodd" stroke-width="6.4"/>
		<path transform="matrix(.8 0 0 .8 25.6 25.8)" d="m120 168v-16" fill="none" stroke-linecap="round" stroke-width="4"/>
		<path transform="matrix(.8 0 0 .8 25.6 25.8)" d="m136 152v16" fill="none" stroke-linecap="round" stroke-width="4"/>
		<path transform="translate(0 -6.4)" d="m80 168c2.04-4.93 11.5-2.8 16 0 5.07 3.13 3.58 12 8 16 1.27 1.15 3.09 1.8 4.8 1.84 6.74 0.151 12.5-6.4 19.2-6.4 6.75 0 12.5 6.55 19.2 6.4 1.71-0.0383 3.53-0.691 4.8-1.84 4.42-4.01 2.93-12.9 8-16 4.54-2.8 14-4.93 16 0 1.44 3.48-6.56 4.52-8 8-2.04 4.93 2.04 11.1 0 16-4.33 10.5-13.5 19.7-24 24-9.85 4.08-22.1 4.08-32 0-10.5-4.33-19.7-13.5-24-24-2.04-4.93 2.04-11.1 0-16-1.44-3.48-9.44-4.52-8-8z" fill="url(#a)" stroke-width="6.4"/>
		<path transform="matrix(.8 0 0 .8 25.6 25.8)" d="m96 192c-1.44 3.48 4.79 6.02 8 8 7.17 4.43 15.6 8 24 8s16.8-3.57 24-8c3.21-1.98 9.44-4.52 8-8-2.04-4.93-10.8 1.23-16 0-5.8-1.37-10-8-16-8-5.96 0-10.2 6.63-16 8-5.19 1.23-14-4.93-16 0z" stroke-linecap="round" stroke-width="4"/>
	</g>
</svg>
