<svg version="1.1" viewBox="0 0 256 256" xmlns="http://www.w3.org/2000/svg" xmlns:xlink="http://www.w3.org/1999/xlink">
	<defs>
		<linearGradient id="b" x1="8" x2="248" y1="60" y2="60" gradientUnits="userSpaceOnUse">
			<stop stop-color="#0060c0" offset="0"/>
			<stop stop-color="#002040" offset="1"/>
		</linearGradient>
		<linearGradient id="a" x1="36" x2="220" y1="160" y2="160" gradientUnits="userSpaceOnUse">
			<stop stop-color="#403000" offset="0"/>
			<stop stop-color="#c08000" offset="1"/>
		</linearGradient>
	</defs>
	<path transform="matrix(-1,0,0,1,256,0)" d="m8 24c11.2 34.5 64 88 64 88l48-32s-17.5-20.4-24-32c-7.04-12.5-16-40-16-40h-72s-1.65 10.9 0 16zm240 0c-11.2 34.5-64 88-64 88l-48-32s17.5-20.4 24-32c7.04-12.5 16-40 16-40h72s1.65 10.9 0 16z" fill="url(#b)" stroke="#000" stroke-linejoin="round" stroke-width="8"/>
	<path d="m128 72c-48.6 0-88 39.4-88 88 0 48.6 39.4 88 88 88 48.6 0 88-39.4 88-88 0-48.6-39.4-88-88-88zm0 32 16.5 33.3 36.8 5.41-26.6 26 6.21 36.6-32.9-17.2-32.9 17.2 6.21-36.6-26.6-26 36.8-5.41z" fill="url(#a)" fill-rule="evenodd" stroke="#000" stroke-linejoin="round" stroke-width="8"/>
</svg>
