<svg version="1.1" viewBox="0 0 256 256" xmlns="http://www.w3.org/2000/svg" xmlns:xlink="http://www.w3.org/1999/xlink">
	<defs>
		<linearGradient id="a" x1="-4" x2="252" y1="144" y2="144" gradientUnits="userSpaceOnUse">
			<stop stop-color="#a66a0c" offset="0"/>
			<stop stop-color="#f39c12" offset="1"/>
		</linearGradient>
	</defs>
	<text x="64" y="24" font-family="'Neo Sans'" font-size="60px" letter-spacing="0px" text-anchor="middle" word-spacing="0px" style="line-height:1.25" xml:space="preserve"><tspan x="64" y="24"/></text>
	<path transform="translate(4,-16)" d="m88 48h72v16h-16c-5.96 0-8 2.04-8 8v144c0 5.96 2.04 8 8 8h16v16h-72v-16h16c5.96 0 8-2.04 8-8v-144c0-5.96-2.04-8-8-8h-16zm88 0h72v16h-16c-5.96 0-8 2.04-8 8v144c0 5.96 2.04 8 8 8h16v16h-72v-16h16c5.96 0 8-2.04 8-8v-144c0-5.96-2.04-8-8-8h-16zm-176-9.9e-14 72 9.9e-14v16h-16c-5.96 0-8 2.04-8 8v144c0 5.96 2.04 8 8 8h16v16l-72-1e-13v-16h16c5.96 0 8-2.04 8-8v-144c0-5.96-2.04-8-8-8h-16z" fill="url(#a)" stroke="#000" stroke-linejoin="round" stroke-width="8"/>
</svg>
